<?xml version="1.0" encoding="iso-8859-1"?>
<!-- Generator: Adobe Illustrator 19.0.0, SVG Export Plug-In . SVG Version: 6.00 Build 0)  -->
<svg version="1.1" id="Layer_1" xmlns="http://www.w3.org/2000/svg" xmlns:xlink="http://www.w3.org/1999/xlink" x="0px" y="0px"
	 viewBox="0 0 512 512" style="enable-background:new 0 0 512 512;" xml:space="preserve">
<path style="fill:#F4661E;" d="M504.082,139.876v232.247c-64.132,0-116.124-51.992-116.124-116.124S439.951,139.876,504.082,139.876
	z"/>
<path style="fill:#AFB6BB;" d="M504.082,372.124v52.784H256v-95.01c40.812,0,73.897-33.085,73.897-73.897
	S296.812,182.103,256,182.103v-95.01h248.082v52.784c-64.132,0-116.124,51.992-116.124,116.124S439.951,372.124,504.082,372.124z"/>
<g>
	<path style="fill:#E7ECED;" d="M256,182.103c40.812,0,73.897,33.085,73.897,73.897S296.812,329.897,256,329.897V182.103z"/>
	<path style="fill:#E7ECED;" d="M256,182.103v147.794c-40.812,0-73.897-33.085-73.897-73.897S215.188,182.103,256,182.103z"/>
</g>
<path style="fill:#AFB6BB;" d="M256,329.897v95.01H7.918v-52.784c64.132,0,116.124-51.992,116.124-116.124
	S72.049,139.876,7.918,139.876V87.093H256v95.01c-40.812,0-73.897,33.085-73.897,73.897S215.188,329.897,256,329.897z"/>
<path style="fill:#F4661E;" d="M7.918,139.876c64.132,0,116.124,51.992,116.124,116.124S72.049,372.124,7.918,372.124V139.876z"/>
<path d="M0,79.175v353.65h512V79.175H0z M248.082,321.487c-32.659-3.926-58.062-31.787-58.062-65.487s25.403-61.561,58.062-65.487
	V321.487z M263.918,190.513c32.659,3.926,58.062,31.787,58.062,65.487s-25.403,61.561-58.062,65.487V190.513z M15.835,148.085
	C71.817,152.154,116.124,198.998,116.124,256S71.817,359.847,15.835,363.915V148.085z M15.835,379.782
	c64.72-4.098,116.124-58.045,116.124-123.782S80.555,136.317,15.835,132.218V95.01h232.247v79.565
	c-41.411,3.996-73.897,38.984-73.897,81.425s32.486,77.428,73.897,81.425v79.565H15.835V379.782z M263.918,416.99v-79.565
	c41.411-3.996,73.897-38.984,73.897-81.425s-32.486-77.428-73.897-81.425V95.01h232.247v37.208
	c-64.72,4.098-116.124,58.045-116.124,123.782s51.404,119.683,116.124,123.782v37.208H263.918z M496.165,148.085v215.831
	c-55.982-4.069-100.289-50.913-100.289-107.915S440.183,152.153,496.165,148.085z"/>
<g>
</g>
<g>
</g>
<g>
</g>
<g>
</g>
<g>
</g>
<g>
</g>
<g>
</g>
<g>
</g>
<g>
</g>
<g>
</g>
<g>
</g>
<g>
</g>
<g>
</g>
<g>
</g>
<g>
</g>
</svg>
